<?xml version="1.0" encoding="utf-8"?>
<!-- Generator: Adobe Illustrator 16.0.0, SVG Export Plug-In . SVG Version: 6.00 Build 0)  -->
<!DOCTYPE svg PUBLIC "-//W3C//DTD SVG 1.1//EN" "http://www.w3.org/Graphics/SVG/1.1/DTD/svg11.dtd">
<svg version="1.1" id="Layer_1" xmlns="http://www.w3.org/2000/svg" xmlns:xlink="http://www.w3.org/1999/xlink" x="0px" y="0px"
	 width="35px" height="35px" viewBox="0 0 35 35" enable-background="new 0 0 35 35" xml:space="preserve">
<g>
	<path fill="#1C7F89" d="M9.602,15.938c0.487-0.006,0.978-0.002,1.465-0.002c0.426,0,0.849,0.014,1.271-0.005
		c0.312-0.012,0.627-0.042,0.933-0.106c0.428-0.091,0.823-0.268,1.029-0.689c0.172-0.355,0.205-0.742,0.139-1.132
		c-0.088-0.522-0.363-0.896-0.9-1.007c-0.387-0.081-0.783-0.154-1.178-0.166c-0.93-0.026-1.857-0.009-2.787-0.017
		c-0.147-0.002-0.168,0.057-0.168,0.182c0.006,0.918,0.008,1.835,0,2.752C9.4,15.904,9.456,15.94,9.602,15.938z"/>
	<path fill="#1C7F89" d="M13.533,18.406c-0.376-0.08-0.764-0.129-1.146-0.135c-0.923-0.019-1.848-0.002-2.771-0.011
		C9.447,18.259,9.4,18.305,9.4,18.473c0.009,1.122,0.004,2.245,0.004,3.368c0,0.054,0.006,0.104,0.011,0.191
		c0.086,0,0.151,0,0.216,0c0.495,0,0.99,0.004,1.484-0.005c0.652-0.008,1.306-0.008,1.955-0.045c0.474-0.026,0.906-0.192,1.23-0.567
		c0.434-0.5,0.48-1.097,0.42-1.722C14.654,19.008,14.159,18.537,13.533,18.406z"/>
	<path fill="#1C7F89" d="M17.5-0.002C7.877-0.002,0.074,7.8,0.074,17.424S7.877,34.85,17.5,34.85
		c9.625,0,17.426-7.803,17.426-17.426C34.926,7.799,27.125-0.002,17.5-0.002z M20.98,10.961c1.889,0,3.769,0,5.666,0
		c0,0.439,0.002,0.867-0.006,1.295c0,0.032-0.058,0.075-0.097,0.093c-0.036,0.016-0.084,0.004-0.126,0.004c-1.745,0-3.49,0-5.234,0
		c-0.063,0-0.121,0-0.203,0C20.98,11.876,20.98,11.425,20.98,10.961z M17.087,22.488c-0.446,0.723-1.056,1.266-1.854,1.58
		c-0.916,0.361-1.881,0.408-2.851,0.412c-1.998,0.008-3.995,0.002-5.995,0.004c-0.08,0-0.156,0.004-0.234,0.01
		c0-4.715,0-9.427,0-14.141c0.078,0.004,0.154,0.011,0.234,0.011c2.149,0,4.301-0.003,6.45,0.002
		c0.795,0.002,1.581,0.087,2.324,0.393c0.899,0.367,1.569,0.979,1.883,1.91c0.34,1.012,0.345,2.031-0.142,3.01
		c-0.235,0.474-0.625,0.806-1.077,1.069c-0.076,0.043-0.154,0.09-0.263,0.153c0.209,0.102,0.394,0.184,0.565,0.283
		c0.968,0.548,1.435,1.419,1.56,2.49C17.807,20.676,17.624,21.625,17.087,22.488z M28.85,19.744c-0.049-0.004-0.097-0.01-0.145-0.01
		c-2.346-0.004-4.688-0.004-7.031-0.004c-0.056,0-0.107,0-0.195,0c0.021,0.194,0.033,0.373,0.061,0.549
		c0.186,1.129,0.988,1.856,2.13,1.943c0.476,0.034,0.938,0.014,1.382-0.189c0.344-0.16,0.631-0.387,0.811-0.721
		c0.094-0.17,0.207-0.23,0.4-0.229c0.738,0.015,1.475,0.006,2.213,0.006c0.063,0,0.131,0,0.231,0
		c-0.036,0.162-0.052,0.306-0.099,0.438c-0.287,0.772-0.793,1.391-1.438,1.887c-0.952,0.734-2.06,0.969-3.231,0.975
		c-1.328,0.008-2.52-0.397-3.558-1.229c-0.718-0.574-1.146-1.346-1.351-2.234c-0.305-1.326-0.295-2.652,0.08-3.961
		c0.277-0.975,0.834-1.771,1.658-2.375c0.981-0.716,2.094-0.96,3.282-0.921c0.892,0.029,1.748,0.216,2.531,0.666
		c0.62,0.357,1.094,0.863,1.474,1.465c0.48,0.767,0.698,1.61,0.758,2.503c0.006,0.057,0.024,0.115,0.037,0.174
		C28.85,18.898,28.85,19.322,28.85,19.744z"/>
	<path fill="#1C7F89" d="M23.813,15.839c-1.494-0.011-2.135,1.073-2.24,2.139c1.504,0,3.003,0,4.506,0
		C26.066,16.751,25.206,15.85,23.813,15.839z"/>
</g>
</svg>
