<?xml version="1.0" encoding="utf-8"?>
<!-- Generator: Adobe Illustrator 16.0.0, SVG Export Plug-In . SVG Version: 6.00 Build 0)  -->
<!DOCTYPE svg PUBLIC "-//W3C//DTD SVG 1.1//EN" "http://www.w3.org/Graphics/SVG/1.1/DTD/svg11.dtd">
<svg version="1.1" id="Layer_1" xmlns="http://www.w3.org/2000/svg" xmlns:xlink="http://www.w3.org/1999/xlink" x="0px" y="0px"
	 width="35px" height="35px" viewBox="0 0 35 35" enable-background="new 0 0 35 35" xml:space="preserve">
<path fill="#1C7F89" d="M27.286,25.654v-6.809c0-3.646-1.947-5.344-4.542-5.344c-2.096,0-3.034,1.152-3.557,1.96V13.78h-3.949
	c0.055,1.114,0,11.872,0,11.872h3.949v-6.631c0-0.354,0.023-0.707,0.129-0.961c0.285-0.709,0.935-1.443,2.023-1.443
	c1.43,0,1.999,1.088,1.999,2.684v6.354H27.286L27.286,25.654z M11.082,12.161c1.376,0,2.232-0.913,2.232-2.052
	c-0.024-1.164-0.856-2.051-2.207-2.051c-1.35,0-2.231,0.886-2.231,2.051c0,1.14,0.856,2.052,2.183,2.052H11.082z M17.5,34.875
	c-9.631,0-17.438-7.809-17.438-17.438C0.063,7.807,7.869,0,17.5,0s17.438,7.807,17.438,17.438
	C34.938,27.066,27.131,34.875,17.5,34.875z M13.057,25.654V13.781H9.109v11.873H13.057z"/>
</svg>
