<?xml version="1.0" encoding="utf-8"?>
<!-- Generator: Adobe Illustrator 16.0.0, SVG Export Plug-In . SVG Version: 6.00 Build 0)  -->
<!DOCTYPE svg PUBLIC "-//W3C//DTD SVG 1.1//EN" "http://www.w3.org/Graphics/SVG/1.1/DTD/svg11.dtd">
<svg version="1.1" id="Capa_1" xmlns="http://www.w3.org/2000/svg" xmlns:xlink="http://www.w3.org/1999/xlink" x="0px" y="0px"
	 width="35.008px" height="35.008px" viewBox="238.496 238.496 35.008 35.008"
	 enable-background="new 238.496 238.496 35.008 35.008" xml:space="preserve">
<g>
	<path fill="#1C7F89" d="M256,238.576c-9.623,0-17.424,7.801-17.424,17.424s7.801,17.424,17.424,17.424s17.424-7.801,17.424-17.424
		S265.623,238.576,256,238.576z M266.239,253.486c-1.155,6.51-7.613,12.023-9.555,13.284c-1.943,1.259-3.714-0.505-4.357-1.839
		c-0.735-1.521-2.94-9.764-3.517-10.447c-0.578-0.683-2.31,0.683-2.31,0.683l-0.841-1.102c0,0,3.519-4.201,6.195-4.726
		c2.838-0.557,2.834,4.358,3.517,7.087c0.661,2.639,1.104,4.15,1.68,4.15c0.577,0,1.681-1.473,2.889-3.729
		c1.209-2.258-0.053-4.253-2.415-2.834C258.469,248.34,267.394,246.977,266.239,253.486z"/>
</g>
</svg>
